Coordinates
version=1
nRows=13
nColumns=38
inDegrees=no

Units are S.I. units (second, meters, Newtons, ...)
If the header above contains a line with 'inDegrees', this indicates whether rotational values are in degrees (yes) or radians (no).

endheader
time	pelvis_tilt	pelvis_list	pelvis_rotation	pelvis_tx	pelvis_ty	pelvis_tz	hip_flexion_r	hip_adduction_r	hip_rotation_r	knee_angle_r	ankle_angle_r	subtalar_angle_r	mtp_angle_r	hip_flexion_l	hip_adduction_l	hip_rotation_l	knee_angle_l	ankle_angle_l	subtalar_angle_l	mtp_angle_l	lumbar_extension	lumbar_bending	lumbar_rotation	arm_flex_r	arm_add_r	arm_rot_r	elbow_flex_r	pro_sup_r	wrist_flex_r	wrist_dev_r	arm_flex_l	arm_add_l	arm_rot_l	elbow_flex_l	pro_sup_l	wrist_flex_l	wrist_dev_l
1.17	-3.00032	1.3026	1.44816	0.736981	0.540583	1.01337	0.113609	-0.0327632	-0.0799898	0.710044	-0.466283	0	0	0.588542	-0.054076	-0.0963228	0.351928	-0.186443	0	0	0.212408	-0.017997	0.0734852	-0.0399977	-0.210171	0.191916	0.449125	1.5708	0	0	-0.183928	-0.267888	0.69175	0.434008	0.794439	0	0
1.18	-3.01475	1.30546	1.45796	0.737905	0.527575	1.01411	0.132635	-0.0404745	-0.0683077	0.749396	-0.522466	0	0	0.577659	-0.0498707	-0.0913188	0.36408	-0.171116	0	0	0.209168	-0.0215528	0.0736338	-0.0425619	-0.208748	0.199666	0.442425	1.5708	0	0	-0.179023	-0.271656	0.697683	0.439946	0.788828	0	0
1.19	-3.03805	1.30292	1.46979	0.738356	0.514215	1.01458	0.15947	-0.0482333	-0.0507234	0.788268	-0.574671	0	0	0.568469	-0.047446	-0.0977013	0.371291	-0.156619	0	0	0.214565	-0.0251756	0.0800779	-0.0463059	-0.206675	0.209612	0.432311	1.5708	0	0	-0.176171	-0.274736	0.702763	0.444037	0.785661	0	0
1.2	-3.05622	1.30195	1.47572	0.738731	0.501099	1.0154	0.185471	-0.053603	-0.033927	0.826113	-0.604576	0	0	0.555386	-0.0460764	-0.107282	0.375192	-0.143655	0	0	0.217102	-0.0271847	0.0866888	-0.0480103	-0.204597	0.220189	0.420831	1.5708	0	0	-0.171641	-0.276846	0.706416	0.446927	0.78623	0	0
1.21	-3.0653	1.30436	1.4729	0.739078	0.488389	1.01677	0.208291	-0.0557806	-0.0186155	0.862924	-0.606722	0	0	0.537569	-0.0463304	-0.118709	0.376866	-0.132013	0	0	0.213853	-0.0268517	0.092146	-0.0470106	-0.202766	0.230593	0.408874	1.5708	0	0	-0.164571	-0.277538	0.707684	0.448766	0.788332	0	0
1.22	-3.06686	1.31049	1.46198	0.739341	0.476044	1.01876	0.227337	-0.0552083	-0.00272433	0.898199	-0.579998	0	0	0.514873	-0.0487977	-0.134196	0.376268	-0.120086	0	0	0.204647	-0.0245322	0.0969142	-0.0426419	-0.20151	0.243743	0.395697	1.5708	0	0	-0.155511	-0.27701	0.705634	0.449969	0.792229	0	0
1.23	-3.06226	1.31549	1.44826	0.739715	0.463672	1.02089	0.246369	-0.0527114	0.00902149	0.930966	-0.528833	0	0	0.492825	-0.0516467	-0.147264	0.373244	-0.111317	0	0	0.196924	-0.021095	0.0971311	-0.0382057	-0.200094	0.25774	0.382352	1.5708	0	0	-0.147477	-0.276007	0.699783	0.450625	0.799837	0	0
1.24	-3.05306	1.31789	1.43397	0.740264	0.451406	1.02299	0.267504	-0.049326	0.0154385	0.961914	-0.465926	0	0	0.473777	-0.054398	-0.15452	0.368385	-0.105868	0	0	0.192496	-0.0167933	0.0924759	-0.0344807	-0.198633	0.27188	0.369715	1.5708	0	0	-0.141033	-0.274936	0.690706	0.451489	0.81585	0	0
1.25	-3.039	1.31987	1.41785	0.740938	0.439396	1.02521	0.288622	-0.0452396	0.0177691	0.989596	-0.406412	0	0	0.455759	-0.0574063	-0.155894	0.362458	-0.103003	0	0	0.188205	-0.0116012	0.0845457	-0.0312303	-0.197692	0.285229	0.359242	1.5708	0	0	-0.135149	-0.274273	0.67817	0.454365	0.83584	0	0
1.26	-3.02917	1.31887	1.40548	0.741476	0.427255	1.02734	0.312722	-0.0413572	0.0203278	1.01283	-0.356542	0	0	0.440671	-0.0604796	-0.158775	0.355433	-0.102554	0	0	0.18913	-0.00679501	0.0771611	-0.0302046	-0.196624	0.297117	0.3498	1.5708	0	0	-0.131255	-0.274722	0.665169	0.458913	0.854622	0	0
1.27	-3.02327	1.31567	1.39724	0.741969	0.415053	1.02939	0.338896	-0.0379095	0.0222844	1.0312	-0.311881	0	0	0.427958	-0.0631227	-0.164967	0.34871	-0.10365	0	0	0.19425	-0.00244517	0.0691528	-0.0309109	-0.195976	0.309757	0.341783	1.5708	0	0	-0.129686	-0.275644	0.648344	0.465454	0.873496	0	0
1.28	-3.00859	1.31502	1.38376	0.742695	0.403273	1.03174	0.361216	-0.0335746	0.0199042	1.04365	-0.274113	0	0	0.413285	-0.0662405	-0.16998	0.343803	-0.105418	0	0	0.19481	0.00322033	0.0576087	-0.0307823	-0.196371	0.321623	0.336478	1.5708	0	0	-0.126819	-0.276962	0.629799	0.474103	0.893183	0	0
1.29	-2.99329	1.31576	1.36926	0.743349	0.391466	1.03433	0.381202	-0.0291846	0.0173735	1.05017	-0.242883	0	0	0.396097	-0.0692196	-0.175699	0.338187	-0.107641	0	0	0.193829	0.00894435	0.0470913	-0.0313567	-0.196905	0.330388	0.33275	1.5708	0	0	-0.123478	-0.279259	0.614092	0.484096	0.910575	0	0
